<svg id="Capa_1" enable-background="new 0 0 512 512" height="512" viewBox="0 0 512 512" width="512" xmlns="http://www.w3.org/2000/svg"><g><g><path d="m442 128.08v22.37c-35.46-57.24-98.85-95.45-171-95.45-54.88 0-104.69 22.11-141 57.88v38.12c-14.518 0-105.386 0-120 0 0 33.14 26.86 60 60 60 1.73 0 3.44-.07 5.13-.22-3.36 14.54-5.13 29.68-5.13 45.22 0 110.83 90.17 201 201 201 103.53 0 189.03-78.68 199.84-179.4 8.75 9.46 19.25 17.44 31.16 23.4v-270c-36.77 18.39-60 55.97-60 97.08z" fill="#eefaff"/><path d="m376 240.45c0 23.99-13.96 43.26-37.47 65.45-16.88 15.92-38.68 33.35-63.78 55.1-60.05-52.04-101.25-79.33-101.25-120.55 0-29.8 20.66-54.95 50.63-54.95 38.47 0 50.62 43.87 50.62 43.87s12.15-43.87 50.63-43.87c29.97 0 50.62 25.15 50.62 54.95z" fill="#f5737f"/></g><g><path d="m325.38 175.5c-21.618 0-38.908 11.546-50.629 30.222-11.699-18.638-28.967-30.222-50.621-30.222-34.973 0-60.63 29.004-60.63 64.95 0 39.532 31.244 65.902 78.538 105.817 8.351 7.049 16.986 14.337 26.163 22.289 1.88 1.629 4.214 2.443 6.549 2.443 2.334 0 4.669-.814 6.549-2.442 9.171-7.947 17.801-15.231 26.146-22.275 42.608-35.964 78.555-64.706 78.555-105.832 0-35.901-25.608-64.95-60.62-64.95zm-30.835 155.499c-6.388 5.392-12.942 10.924-19.795 16.8-6.859-5.882-13.418-11.418-19.813-16.814-44.548-37.599-71.437-60.293-71.437-90.534 0-25.626 17.467-44.95 40.63-44.95 30.262 0 40.567 35.076 40.983 36.539 1.2 4.332 5.142 7.331 9.637 7.331s8.438-2.999 9.637-7.331c.101-.365 10.473-36.539 40.993-36.539 23.157 0 40.62 19.324 40.62 44.95 0 31.283-30.535 56.008-71.455 90.548z"/><path d="m502 491c5.523 0 10-4.478 10-10 0-15.894 0-434.207 0-450 0-3.466-1.795-6.685-4.743-8.507s-6.629-1.987-9.73-.437c-37.672 18.839-62.442 56.195-65.255 98.062-41.206-48.801-100.381-75.118-161.272-75.118-48.065 0-93.803 16.092-131 45.692v-59.692c0-5.522-4.477-10-10-10s-10 4.478-10 10v110h-40v-110c0-5.522-4.477-10-10-10s-10 4.478-10 10v110h-40v-110c0-5.522-4.477-10-10-10s-10 4.478-10 10v120c0 35.203 26.123 64.406 60 69.274v260.726c0 5.522 4.477 10 10 10s10-4.478 10-10v-135.397c33.756 71.666 106.674 121.397 191 121.397 36.417 0 72.343-9.473 103.894-27.394 4.802-2.728 6.484-8.832 3.756-13.634-2.728-4.803-8.831-6.484-13.634-3.757-28.546 16.215-61.056 24.785-94.016 24.785-105.318 0-191-85.683-191-191 0-12.231 1.178-24.414 3.478-36.318 32.612-6.363 56.522-35.006 56.522-68.682v-33.864c35.63-33.65 81.983-52.136 131-52.136 65.638 0 125.603 32.994 161 88.38v50.54c0 28.34 10.042 55.472 28.364 76.931-3.934 30.057-15.111 59.013-32.495 83.99-3.155 4.533-2.038 10.766 2.495 13.921 4.561 3.175 10.787 2.008 13.92-2.495 16.477-23.674 27.913-50.586 33.58-78.73 4.473 3.473 9.187 6.63 14.136 9.439v174.024c0 5.522 4.477 10 10 10zm-432-290c-24.146 0-44.348-17.205-48.994-40.01h97.96c-4.682 22.602-24.791 40.01-48.966 40.01zm382 2.92v-75.84c0-31.824 14.985-60.93 40-79.298v234.406c-24.584-18.149-40-47.207-40-79.268z"/><circle cx="406" cy="403.999" r="10"/></g></g></svg>